<mxfile host="Electron" modified="2024-08-16T14:35:45.194Z" agent="Mozilla/5.0 (Windows NT 10.0; Win64; x64) AppleWebKit/537.36 (KHTML, like Gecko) draw.io/24.4.8 Chrome/124.0.6367.207 Electron/30.0.6 Safari/537.36" etag="5btWtJzVmLT5nSSXhxoQ" version="24.4.8" type="device">
  <diagram name="‫עמוד-1‬" id="NSOdITBFpndG5ONiXuww">
    <mxGraphModel dx="4817" dy="-1458" grid="1" gridSize="10" guides="1" tooltips="1" connect="1" arrows="1" fold="1" page="1" pageScale="1" pageWidth="1654" pageHeight="1169" math="0" shadow="0">
      <root>
        <mxCell id="0" />
        <mxCell id="1" parent="0" />
        <mxCell id="aDhdWH1WQT66VKp4V4vk-36" value="full_name" style="ellipse;whiteSpace=wrap;html=1;align=center;fillColor=#fff2cc;strokeColor=#d6b656;" parent="1" vertex="1">
          <mxGeometry x="-2880" y="2618" width="100" height="40" as="geometry" />
        </mxCell>
        <mxCell id="egrEntnQuPlnR7x_gv7B-3" value="&lt;u&gt;customer_id&lt;/u&gt;" style="ellipse;whiteSpace=wrap;html=1;align=center;fillColor=#fff2cc;strokeColor=#d6b656;" vertex="1" parent="1">
          <mxGeometry x="-2880" y="2566" width="100" height="40" as="geometry" />
        </mxCell>
        <mxCell id="egrEntnQuPlnR7x_gv7B-4" value="phone_number" style="ellipse;whiteSpace=wrap;html=1;align=center;fillColor=#fff2cc;strokeColor=#d6b656;" vertex="1" parent="1">
          <mxGeometry x="-2880" y="2470" width="100" height="40" as="geometry" />
        </mxCell>
        <mxCell id="egrEntnQuPlnR7x_gv7B-5" value="address" style="ellipse;whiteSpace=wrap;html=1;align=center;fillColor=#fff2cc;strokeColor=#d6b656;" vertex="1" parent="1">
          <mxGeometry x="-2880" y="2420" width="100" height="40" as="geometry" />
        </mxCell>
        <mxCell id="egrEntnQuPlnR7x_gv7B-7" value="&lt;span style=&quot;border-bottom: 1px dotted&quot;&gt;country_id&lt;/span&gt;" style="ellipse;whiteSpace=wrap;html=1;align=center;fillColor=#fff2cc;strokeColor=#d6b656;" vertex="1" parent="1">
          <mxGeometry x="-2880" y="2516" width="100" height="40" as="geometry" />
        </mxCell>
        <mxCell id="egrEntnQuPlnR7x_gv7B-9" value="Contact" style="whiteSpace=wrap;html=1;align=center;fillColor=#d5e8d4;strokeColor=#82b366;" vertex="1" parent="1">
          <mxGeometry x="-2886.38" y="3068.25" width="100" height="40" as="geometry" />
        </mxCell>
        <mxCell id="egrEntnQuPlnR7x_gv7B-10" value="full_name" style="ellipse;whiteSpace=wrap;html=1;align=center;fillColor=#fff2cc;strokeColor=#d6b656;" vertex="1" parent="1">
          <mxGeometry x="-2998.38" y="3009.25" width="100" height="40" as="geometry" />
        </mxCell>
        <mxCell id="egrEntnQuPlnR7x_gv7B-11" value="&lt;u&gt;contact_id&lt;/u&gt;" style="ellipse;whiteSpace=wrap;html=1;align=center;fillColor=#fff2cc;strokeColor=#d6b656;" vertex="1" parent="1">
          <mxGeometry x="-2773.38" y="3009.25" width="100" height="40" as="geometry" />
        </mxCell>
        <mxCell id="egrEntnQuPlnR7x_gv7B-12" value="whats_app" style="ellipse;whiteSpace=wrap;html=1;align=center;fillColor=#fff2cc;strokeColor=#d6b656;" vertex="1" parent="1">
          <mxGeometry x="-2888.38" y="3009.25" width="100" height="40" as="geometry" />
        </mxCell>
        <mxCell id="egrEntnQuPlnR7x_gv7B-13" value="Country" style="whiteSpace=wrap;html=1;align=center;fillColor=#d5e8d4;strokeColor=#82b366;" vertex="1" parent="1">
          <mxGeometry x="-2520" y="2641" width="100" height="40" as="geometry" />
        </mxCell>
        <mxCell id="egrEntnQuPlnR7x_gv7B-14" value="&lt;u&gt;country_id&lt;/u&gt;" style="ellipse;whiteSpace=wrap;html=1;align=center;fillColor=#fff2cc;strokeColor=#d6b656;" vertex="1" parent="1">
          <mxGeometry x="-2630" y="2691" width="100" height="40" as="geometry" />
        </mxCell>
        <mxCell id="egrEntnQuPlnR7x_gv7B-15" value="country" style="ellipse;whiteSpace=wrap;html=1;align=center;fillColor=#fff2cc;strokeColor=#d6b656;" vertex="1" parent="1">
          <mxGeometry x="-2630" y="2637" width="100" height="40" as="geometry" />
        </mxCell>
        <mxCell id="egrEntnQuPlnR7x_gv7B-16" value="vat_rate" style="ellipse;whiteSpace=wrap;html=1;align=center;fillColor=#fff2cc;strokeColor=#d6b656;" vertex="1" parent="1">
          <mxGeometry x="-2520" y="2691" width="100" height="40" as="geometry" />
        </mxCell>
        <mxCell id="egrEntnQuPlnR7x_gv7B-17" value="currency_type" style="ellipse;whiteSpace=wrap;html=1;align=center;fillColor=#fff2cc;strokeColor=#d6b656;" vertex="1" parent="1">
          <mxGeometry x="-2400" y="2691" width="100" height="40" as="geometry" />
        </mxCell>
        <mxCell id="egrEntnQuPlnR7x_gv7B-18" value="currency_change" style="ellipse;whiteSpace=wrap;html=1;align=center;fillColor=#fff2cc;strokeColor=#d6b656;" vertex="1" parent="1">
          <mxGeometry x="-2400" y="2637" width="100" height="40" as="geometry" />
        </mxCell>
        <mxCell id="egrEntnQuPlnR7x_gv7B-23" style="edgeStyle=orthogonalEdgeStyle;rounded=0;orthogonalLoop=1;jettySize=auto;html=1;exitX=0.5;exitY=1;exitDx=0;exitDy=0;" edge="1" parent="1" source="egrEntnQuPlnR7x_gv7B-20" target="egrEntnQuPlnR7x_gv7B-13">
          <mxGeometry relative="1" as="geometry" />
        </mxCell>
        <mxCell id="egrEntnQuPlnR7x_gv7B-45" value="1" style="edgeLabel;html=1;align=center;verticalAlign=middle;resizable=0;points=[];" vertex="1" connectable="0" parent="egrEntnQuPlnR7x_gv7B-23">
          <mxGeometry x="0.3333" y="3" relative="1" as="geometry">
            <mxPoint as="offset" />
          </mxGeometry>
        </mxCell>
        <mxCell id="egrEntnQuPlnR7x_gv7B-20" value="Live In" style="shape=rhombus;double=1;perimeter=rhombusPerimeter;whiteSpace=wrap;html=1;align=center;fillColor=#dae8fc;strokeColor=#6c8ebf;" vertex="1" parent="1">
          <mxGeometry x="-2530" y="2509" width="120" height="60" as="geometry" />
        </mxCell>
        <mxCell id="egrEntnQuPlnR7x_gv7B-21" value="Customer" style="shape=ext;margin=3;double=1;whiteSpace=wrap;html=1;align=center;fillColor=#d5e8d4;strokeColor=#82b366;" vertex="1" parent="1">
          <mxGeometry x="-2730" y="2513" width="100" height="40" as="geometry" />
        </mxCell>
        <mxCell id="egrEntnQuPlnR7x_gv7B-24" value="" style="shape=link;html=1;rounded=0;entryX=0;entryY=0.5;entryDx=0;entryDy=0;exitX=1.017;exitY=0.629;exitDx=0;exitDy=0;exitPerimeter=0;" edge="1" parent="1" source="egrEntnQuPlnR7x_gv7B-21" target="egrEntnQuPlnR7x_gv7B-20">
          <mxGeometry relative="1" as="geometry">
            <mxPoint x="-2820" y="2736.5" as="sourcePoint" />
            <mxPoint x="-2660" y="2736.5" as="targetPoint" />
          </mxGeometry>
        </mxCell>
        <mxCell id="egrEntnQuPlnR7x_gv7B-25" value="n" style="resizable=0;html=1;whiteSpace=wrap;align=right;verticalAlign=bottom;" connectable="0" vertex="1" parent="egrEntnQuPlnR7x_gv7B-24">
          <mxGeometry x="1" relative="1" as="geometry">
            <mxPoint x="-89" as="offset" />
          </mxGeometry>
        </mxCell>
        <mxCell id="egrEntnQuPlnR7x_gv7B-26" value="Product" style="whiteSpace=wrap;html=1;align=center;fillColor=#d5e8d4;strokeColor=#82b366;" vertex="1" parent="1">
          <mxGeometry x="-2370" y="2796" width="100" height="40" as="geometry" />
        </mxCell>
        <mxCell id="egrEntnQuPlnR7x_gv7B-27" value="&lt;u&gt;serial&lt;/u&gt;" style="ellipse;whiteSpace=wrap;html=1;align=center;fillColor=#fff2cc;strokeColor=#d6b656;" vertex="1" parent="1">
          <mxGeometry x="-2480" y="2830" width="100" height="40" as="geometry" />
        </mxCell>
        <mxCell id="egrEntnQuPlnR7x_gv7B-28" value="product_name" style="ellipse;whiteSpace=wrap;html=1;align=center;fillColor=#fff2cc;strokeColor=#d6b656;" vertex="1" parent="1">
          <mxGeometry x="-2481" y="2766" width="100" height="40" as="geometry" />
        </mxCell>
        <mxCell id="egrEntnQuPlnR7x_gv7B-29" value="type" style="ellipse;whiteSpace=wrap;html=1;align=center;fillColor=#fff2cc;strokeColor=#d6b656;" vertex="1" parent="1">
          <mxGeometry x="-2370" y="2740" width="100" height="40" as="geometry" />
        </mxCell>
        <mxCell id="egrEntnQuPlnR7x_gv7B-30" value="cost_price" style="ellipse;whiteSpace=wrap;html=1;align=center;fillColor=#fff2cc;strokeColor=#d6b656;" vertex="1" parent="1">
          <mxGeometry x="-2210" y="2790" width="100" height="40" as="geometry" />
        </mxCell>
        <mxCell id="egrEntnQuPlnR7x_gv7B-31" value="selling_price" style="ellipse;whiteSpace=wrap;html=1;align=center;fillColor=#fff2cc;strokeColor=#d6b656;" vertex="1" parent="1">
          <mxGeometry x="-2370" y="2846" width="100" height="40" as="geometry" />
        </mxCell>
        <mxCell id="egrEntnQuPlnR7x_gv7B-32" value="stock" style="ellipse;whiteSpace=wrap;html=1;align=center;fillColor=#fff2cc;strokeColor=#d6b656;" vertex="1" parent="1">
          <mxGeometry x="-2260" y="2746" width="100" height="40" as="geometry" />
        </mxCell>
        <mxCell id="egrEntnQuPlnR7x_gv7B-33" value="weight" style="ellipse;whiteSpace=wrap;html=1;align=center;fillColor=#fff2cc;strokeColor=#d6b656;" vertex="1" parent="1">
          <mxGeometry x="-2260" y="2836" width="100" height="40" as="geometry" />
        </mxCell>
        <mxCell id="egrEntnQuPlnR7x_gv7B-54" style="edgeStyle=orthogonalEdgeStyle;rounded=0;orthogonalLoop=1;jettySize=auto;html=1;exitX=0.5;exitY=1;exitDx=0;exitDy=0;entryX=0;entryY=0.5;entryDx=0;entryDy=0;" edge="1" parent="1" source="egrEntnQuPlnR7x_gv7B-57" target="egrEntnQuPlnR7x_gv7B-52">
          <mxGeometry relative="1" as="geometry">
            <mxPoint x="-2600" y="2990" as="sourcePoint" />
          </mxGeometry>
        </mxCell>
        <mxCell id="egrEntnQuPlnR7x_gv7B-36" value="&lt;u&gt;order_id&lt;/u&gt;" style="ellipse;whiteSpace=wrap;html=1;align=center;fillColor=#fff2cc;strokeColor=#d6b656;" vertex="1" parent="1">
          <mxGeometry x="-2540" y="2970" width="77.5" height="31" as="geometry" />
        </mxCell>
        <mxCell id="egrEntnQuPlnR7x_gv7B-37" value="amount" style="ellipse;whiteSpace=wrap;html=1;align=center;fillColor=#fff2cc;strokeColor=#d6b656;" vertex="1" parent="1">
          <mxGeometry x="-2500" y="2935" width="75" height="30" as="geometry" />
        </mxCell>
        <mxCell id="egrEntnQuPlnR7x_gv7B-39" value="profit" style="ellipse;whiteSpace=wrap;html=1;align=center;dashed=1;fillColor=#e1d5e7;strokeColor=#9673a6;" vertex="1" parent="1">
          <mxGeometry x="-2670" y="2900" width="75" height="30" as="geometry" />
        </mxCell>
        <mxCell id="egrEntnQuPlnR7x_gv7B-43" value="order_datetime" style="ellipse;whiteSpace=wrap;html=1;align=center;dashed=1;fillColor=#e1d5e7;strokeColor=#9673a6;" vertex="1" parent="1">
          <mxGeometry x="-2591.25" y="2895" width="100" height="40" as="geometry" />
        </mxCell>
        <mxCell id="egrEntnQuPlnR7x_gv7B-52" value="ISA" style="triangle;whiteSpace=wrap;html=1;rotation=90;verticalAlign=middle;horizontal=0;fillColor=#ffe6cc;strokeColor=#d79b00;" vertex="1" parent="1">
          <mxGeometry x="-2630" y="3051" width="60" height="80" as="geometry" />
        </mxCell>
        <mxCell id="egrEntnQuPlnR7x_gv7B-57" value="Order" style="whiteSpace=wrap;html=1;align=center;fillColor=#d5e8d4;strokeColor=#82b366;" vertex="1" parent="1">
          <mxGeometry x="-2650" y="2940" width="100" height="40" as="geometry" />
        </mxCell>
        <mxCell id="egrEntnQuPlnR7x_gv7B-59" style="edgeStyle=orthogonalEdgeStyle;rounded=0;orthogonalLoop=1;jettySize=auto;html=1;exitX=0.5;exitY=1;exitDx=0;exitDy=0;entryX=0;entryY=0.5;entryDx=0;entryDy=0;endArrow=none;endFill=0;" edge="1" parent="1" source="egrEntnQuPlnR7x_gv7B-58" target="egrEntnQuPlnR7x_gv7B-57">
          <mxGeometry relative="1" as="geometry" />
        </mxCell>
        <mxCell id="egrEntnQuPlnR7x_gv7B-141" value="N" style="edgeLabel;html=1;align=center;verticalAlign=middle;resizable=0;points=[];" vertex="1" connectable="0" parent="egrEntnQuPlnR7x_gv7B-59">
          <mxGeometry x="-0.5069" y="1" relative="1" as="geometry">
            <mxPoint as="offset" />
          </mxGeometry>
        </mxCell>
        <mxCell id="egrEntnQuPlnR7x_gv7B-61" style="edgeStyle=orthogonalEdgeStyle;rounded=0;orthogonalLoop=1;jettySize=auto;html=1;entryX=0.5;entryY=1;entryDx=0;entryDy=0;endArrow=none;endFill=0;" edge="1" parent="1" target="egrEntnQuPlnR7x_gv7B-21">
          <mxGeometry relative="1" as="geometry">
            <mxPoint x="-2680" y="2780" as="sourcePoint" />
          </mxGeometry>
        </mxCell>
        <mxCell id="egrEntnQuPlnR7x_gv7B-138" value="n" style="edgeLabel;html=1;align=center;verticalAlign=middle;resizable=0;points=[];" vertex="1" connectable="0" parent="egrEntnQuPlnR7x_gv7B-61">
          <mxGeometry x="0.6684" relative="1" as="geometry">
            <mxPoint as="offset" />
          </mxGeometry>
        </mxCell>
        <mxCell id="egrEntnQuPlnR7x_gv7B-64" style="edgeStyle=orthogonalEdgeStyle;rounded=0;orthogonalLoop=1;jettySize=auto;html=1;exitX=1;exitY=0.5;exitDx=0;exitDy=0;entryX=0;entryY=0.5;entryDx=0;entryDy=0;endArrow=none;endFill=0;" edge="1" parent="1" source="egrEntnQuPlnR7x_gv7B-58" target="egrEntnQuPlnR7x_gv7B-26">
          <mxGeometry relative="1" as="geometry" />
        </mxCell>
        <mxCell id="egrEntnQuPlnR7x_gv7B-140" value="m" style="edgeLabel;html=1;align=center;verticalAlign=middle;resizable=0;points=[];" vertex="1" connectable="0" parent="egrEntnQuPlnR7x_gv7B-64">
          <mxGeometry x="-0.256" y="-1" relative="1" as="geometry">
            <mxPoint as="offset" />
          </mxGeometry>
        </mxCell>
        <mxCell id="egrEntnQuPlnR7x_gv7B-58" value="Make Order" style="shape=rhombus;perimeter=rhombusPerimeter;whiteSpace=wrap;html=1;align=center;fillColor=#dae8fc;strokeColor=#6c8ebf;" vertex="1" parent="1">
          <mxGeometry x="-2740" y="2786" width="120" height="60" as="geometry" />
        </mxCell>
        <mxCell id="egrEntnQuPlnR7x_gv7B-121" style="edgeStyle=orthogonalEdgeStyle;rounded=0;orthogonalLoop=1;jettySize=auto;html=1;exitX=1;exitY=0.5;exitDx=0;exitDy=0;entryX=0;entryY=0.5;entryDx=0;entryDy=0;endArrow=none;endFill=0;" edge="1" parent="1" source="egrEntnQuPlnR7x_gv7B-62" target="egrEntnQuPlnR7x_gv7B-103">
          <mxGeometry relative="1" as="geometry" />
        </mxCell>
        <mxCell id="egrEntnQuPlnR7x_gv7B-143" value="1" style="edgeLabel;html=1;align=center;verticalAlign=middle;resizable=0;points=[];" vertex="1" connectable="0" parent="egrEntnQuPlnR7x_gv7B-121">
          <mxGeometry x="0.4991" y="3" relative="1" as="geometry">
            <mxPoint as="offset" />
          </mxGeometry>
        </mxCell>
        <mxCell id="egrEntnQuPlnR7x_gv7B-62" value="order_website" style="whiteSpace=wrap;html=1;align=center;fillColor=#d5e8d4;strokeColor=#82b366;" vertex="1" parent="1">
          <mxGeometry x="-2650" y="3164.5" width="100" height="40" as="geometry" />
        </mxCell>
        <mxCell id="egrEntnQuPlnR7x_gv7B-68" value="ship_type" style="ellipse;whiteSpace=wrap;html=1;align=center;fillColor=#fff2cc;strokeColor=#d6b656;" vertex="1" parent="1">
          <mxGeometry x="-2750" y="3169.5" width="75" height="30" as="geometry" />
        </mxCell>
        <mxCell id="egrEntnQuPlnR7x_gv7B-69" style="edgeStyle=orthogonalEdgeStyle;rounded=0;orthogonalLoop=1;jettySize=auto;html=1;exitX=1;exitY=0.5;exitDx=0;exitDy=0;entryX=0.498;entryY=0.068;entryDx=0;entryDy=0;entryPerimeter=0;" edge="1" parent="1" source="egrEntnQuPlnR7x_gv7B-52" target="egrEntnQuPlnR7x_gv7B-62">
          <mxGeometry relative="1" as="geometry" />
        </mxCell>
        <mxCell id="egrEntnQuPlnR7x_gv7B-77" value="shipping_status" style="shape=ext;margin=3;double=1;whiteSpace=wrap;html=1;align=center;fillColor=#d5e8d4;strokeColor=#82b366;" vertex="1" parent="1">
          <mxGeometry x="-2392.5" y="3230" width="100" height="40" as="geometry" />
        </mxCell>
        <mxCell id="egrEntnQuPlnR7x_gv7B-84" value="&lt;span style=&quot;border-bottom: 1px dotted&quot;&gt;company_id&lt;/span&gt;" style="ellipse;whiteSpace=wrap;html=1;align=center;fillColor=#fff2cc;strokeColor=#d6b656;" vertex="1" parent="1">
          <mxGeometry x="-2280" y="3194.5" width="90" height="30" as="geometry" />
        </mxCell>
        <mxCell id="egrEntnQuPlnR7x_gv7B-89" value="status" style="ellipse;whiteSpace=wrap;html=1;align=center;fillColor=#fff2cc;strokeColor=#d6b656;" vertex="1" parent="1">
          <mxGeometry x="-2280" y="3230" width="90" height="30" as="geometry" />
        </mxCell>
        <mxCell id="egrEntnQuPlnR7x_gv7B-90" value="tracks" style="shape=ext;margin=3;double=1;whiteSpace=wrap;html=1;align=center;fillColor=#d5e8d4;strokeColor=#82b366;" vertex="1" parent="1">
          <mxGeometry x="-2140" y="3168.5" width="100" height="40" as="geometry" />
        </mxCell>
        <mxCell id="egrEntnQuPlnR7x_gv7B-91" value="&lt;u&gt;track_id&lt;/u&gt;" style="ellipse;whiteSpace=wrap;html=1;align=center;fillColor=#fff2cc;strokeColor=#d6b656;" vertex="1" parent="1">
          <mxGeometry x="-2015.75" y="3051" width="102" height="34" as="geometry" />
        </mxCell>
        <mxCell id="egrEntnQuPlnR7x_gv7B-92" value="shipping_type" style="ellipse;whiteSpace=wrap;html=1;align=center;fillColor=#fff2cc;strokeColor=#d6b656;" vertex="1" parent="1">
          <mxGeometry x="-2015.75" y="3246" width="102" height="34" as="geometry" />
        </mxCell>
        <mxCell id="egrEntnQuPlnR7x_gv7B-94" value="&lt;span style=&quot;border-bottom: 1px dotted&quot;&gt;from_country&lt;/span&gt;" style="ellipse;whiteSpace=wrap;html=1;align=center;fillColor=#fff2cc;strokeColor=#d6b656;" vertex="1" parent="1">
          <mxGeometry x="-2015.75" y="3170.5" width="102" height="34" as="geometry" />
        </mxCell>
        <mxCell id="egrEntnQuPlnR7x_gv7B-95" value="date_departure" style="ellipse;whiteSpace=wrap;html=1;align=center;fillColor=#fff2cc;strokeColor=#d6b656;" vertex="1" parent="1">
          <mxGeometry x="-2015.75" y="3090" width="102" height="34" as="geometry" />
        </mxCell>
        <mxCell id="egrEntnQuPlnR7x_gv7B-97" value="&lt;span style=&quot;border-bottom: 1px dotted&quot;&gt;to_country&lt;/span&gt;" style="ellipse;whiteSpace=wrap;html=1;align=center;fillColor=#fff2cc;strokeColor=#d6b656;" vertex="1" parent="1">
          <mxGeometry x="-2015.75" y="3130.5" width="102" height="34" as="geometry" />
        </mxCell>
        <mxCell id="egrEntnQuPlnR7x_gv7B-98" value="date_arrive" style="ellipse;whiteSpace=wrap;html=1;align=center;fillColor=#fff2cc;strokeColor=#d6b656;" vertex="1" parent="1">
          <mxGeometry x="-2015.75" y="3208.5" width="102" height="34" as="geometry" />
        </mxCell>
        <mxCell id="egrEntnQuPlnR7x_gv7B-103" value="shippment_route" style="shape=rhombus;double=1;perimeter=rhombusPerimeter;whiteSpace=wrap;html=1;align=center;fillColor=#dae8fc;strokeColor=#6c8ebf;" vertex="1" parent="1">
          <mxGeometry x="-2400" y="3080" width="120" height="60" as="geometry" />
        </mxCell>
        <mxCell id="egrEntnQuPlnR7x_gv7B-110" value="has_arrive" style="ellipse;whiteSpace=wrap;html=1;align=center;dashed=1;fillColor=#e1d5e7;strokeColor=#9673a6;" vertex="1" parent="1">
          <mxGeometry x="-2015.75" y="3285" width="102" height="34" as="geometry" />
        </mxCell>
        <mxCell id="egrEntnQuPlnR7x_gv7B-112" value="&lt;u&gt;status_id&lt;/u&gt;" style="ellipse;whiteSpace=wrap;html=1;align=center;fillColor=#fff2cc;strokeColor=#d6b656;" vertex="1" parent="1">
          <mxGeometry x="-2280" y="3263.5" width="90" height="30" as="geometry" />
        </mxCell>
        <mxCell id="egrEntnQuPlnR7x_gv7B-116" value="" style="shape=link;html=1;rounded=0;entryX=0.474;entryY=1.024;entryDx=0;entryDy=0;exitX=0.5;exitY=0;exitDx=0;exitDy=0;entryPerimeter=0;" edge="1" parent="1" source="egrEntnQuPlnR7x_gv7B-77" target="egrEntnQuPlnR7x_gv7B-103">
          <mxGeometry relative="1" as="geometry">
            <mxPoint x="-2505" y="3239.5" as="sourcePoint" />
            <mxPoint x="-2355" y="3164.5" as="targetPoint" />
          </mxGeometry>
        </mxCell>
        <mxCell id="egrEntnQuPlnR7x_gv7B-145" value="1" style="edgeLabel;html=1;align=center;verticalAlign=middle;resizable=0;points=[];" vertex="1" connectable="0" parent="egrEntnQuPlnR7x_gv7B-116">
          <mxGeometry x="0.0716" y="1" relative="1" as="geometry">
            <mxPoint as="offset" />
          </mxGeometry>
        </mxCell>
        <mxCell id="egrEntnQuPlnR7x_gv7B-118" value="" style="shape=link;html=1;rounded=0;entryX=1;entryY=0.5;entryDx=0;entryDy=0;exitX=-0.037;exitY=0.509;exitDx=0;exitDy=0;exitPerimeter=0;" edge="1" parent="1" source="egrEntnQuPlnR7x_gv7B-90" target="egrEntnQuPlnR7x_gv7B-103">
          <mxGeometry relative="1" as="geometry">
            <mxPoint x="-2224" y="3244" as="sourcePoint" />
            <mxPoint x="-2225" y="3155" as="targetPoint" />
          </mxGeometry>
        </mxCell>
        <mxCell id="egrEntnQuPlnR7x_gv7B-144" value="m" style="edgeLabel;html=1;align=center;verticalAlign=middle;resizable=0;points=[];" vertex="1" connectable="0" parent="egrEntnQuPlnR7x_gv7B-118">
          <mxGeometry x="0.6388" y="-4" relative="1" as="geometry">
            <mxPoint as="offset" />
          </mxGeometry>
        </mxCell>
        <mxCell id="egrEntnQuPlnR7x_gv7B-149" style="edgeStyle=orthogonalEdgeStyle;rounded=0;orthogonalLoop=1;jettySize=auto;html=1;exitX=1;exitY=0.5;exitDx=0;exitDy=0;entryX=0;entryY=0.5;entryDx=0;entryDy=0;endArrow=none;endFill=0;" edge="1" parent="1" source="egrEntnQuPlnR7x_gv7B-123" target="egrEntnQuPlnR7x_gv7B-147">
          <mxGeometry relative="1" as="geometry" />
        </mxCell>
        <mxCell id="egrEntnQuPlnR7x_gv7B-152" value="1" style="edgeLabel;html=1;align=center;verticalAlign=middle;resizable=0;points=[];" vertex="1" connectable="0" parent="egrEntnQuPlnR7x_gv7B-149">
          <mxGeometry x="0.0175" y="2" relative="1" as="geometry">
            <mxPoint as="offset" />
          </mxGeometry>
        </mxCell>
        <mxCell id="egrEntnQuPlnR7x_gv7B-123" value="shipping_company" style="whiteSpace=wrap;html=1;align=center;fillColor=#d5e8d4;strokeColor=#82b366;" vertex="1" parent="1">
          <mxGeometry x="-2892.88" y="3236.25" width="113" height="40" as="geometry" />
        </mxCell>
        <mxCell id="egrEntnQuPlnR7x_gv7B-130" value="full_name" style="ellipse;whiteSpace=wrap;html=1;align=center;fillColor=#fff2cc;strokeColor=#d6b656;" vertex="1" parent="1">
          <mxGeometry x="-2886.38" y="3303.75" width="100" height="40" as="geometry" />
        </mxCell>
        <mxCell id="egrEntnQuPlnR7x_gv7B-131" value="&lt;u&gt;company_id&lt;/u&gt;" style="ellipse;whiteSpace=wrap;html=1;align=center;fillColor=#fff2cc;strokeColor=#d6b656;" vertex="1" parent="1">
          <mxGeometry x="-3028" y="3233.25" width="100" height="40" as="geometry" />
        </mxCell>
        <mxCell id="egrEntnQuPlnR7x_gv7B-134" style="edgeStyle=orthogonalEdgeStyle;rounded=0;orthogonalLoop=1;jettySize=auto;html=1;entryX=0.5;entryY=1;entryDx=0;entryDy=0;endArrow=none;endFill=0;" edge="1" parent="1" source="egrEntnQuPlnR7x_gv7B-133" target="egrEntnQuPlnR7x_gv7B-9">
          <mxGeometry relative="1" as="geometry" />
        </mxCell>
        <mxCell id="egrEntnQuPlnR7x_gv7B-136" value="n" style="edgeLabel;html=1;align=center;verticalAlign=middle;resizable=0;points=[];" vertex="1" connectable="0" parent="egrEntnQuPlnR7x_gv7B-134">
          <mxGeometry x="0.2022" relative="1" as="geometry">
            <mxPoint as="offset" />
          </mxGeometry>
        </mxCell>
        <mxCell id="egrEntnQuPlnR7x_gv7B-135" style="edgeStyle=orthogonalEdgeStyle;rounded=0;orthogonalLoop=1;jettySize=auto;html=1;exitX=0.5;exitY=1;exitDx=0;exitDy=0;entryX=0.5;entryY=0;entryDx=0;entryDy=0;endArrow=none;endFill=0;" edge="1" parent="1" source="egrEntnQuPlnR7x_gv7B-133" target="egrEntnQuPlnR7x_gv7B-123">
          <mxGeometry relative="1" as="geometry" />
        </mxCell>
        <mxCell id="egrEntnQuPlnR7x_gv7B-137" value="1" style="edgeLabel;html=1;align=center;verticalAlign=middle;resizable=0;points=[];" vertex="1" connectable="0" parent="egrEntnQuPlnR7x_gv7B-135">
          <mxGeometry x="0.2091" relative="1" as="geometry">
            <mxPoint as="offset" />
          </mxGeometry>
        </mxCell>
        <mxCell id="egrEntnQuPlnR7x_gv7B-133" value="company contact" style="shape=rhombus;perimeter=rhombusPerimeter;whiteSpace=wrap;html=1;align=center;fillColor=#dae8fc;strokeColor=#6c8ebf;" vertex="1" parent="1">
          <mxGeometry x="-2896.38" y="3149.25" width="120" height="60" as="geometry" />
        </mxCell>
        <mxCell id="egrEntnQuPlnR7x_gv7B-150" style="edgeStyle=orthogonalEdgeStyle;rounded=0;orthogonalLoop=1;jettySize=auto;html=1;exitX=1;exitY=0.5;exitDx=0;exitDy=0;entryX=-0.006;entryY=0.691;entryDx=0;entryDy=0;endArrow=none;endFill=0;entryPerimeter=0;" edge="1" parent="1" source="egrEntnQuPlnR7x_gv7B-147" target="egrEntnQuPlnR7x_gv7B-77">
          <mxGeometry relative="1" as="geometry" />
        </mxCell>
        <mxCell id="egrEntnQuPlnR7x_gv7B-151" value="n" style="edgeLabel;html=1;align=center;verticalAlign=middle;resizable=0;points=[];" vertex="1" connectable="0" parent="egrEntnQuPlnR7x_gv7B-150">
          <mxGeometry x="0.2642" y="-2" relative="1" as="geometry">
            <mxPoint as="offset" />
          </mxGeometry>
        </mxCell>
        <mxCell id="egrEntnQuPlnR7x_gv7B-147" value="Shipping&lt;div&gt;Provider&lt;/div&gt;" style="shape=rhombus;perimeter=rhombusPerimeter;whiteSpace=wrap;html=1;align=center;fillColor=#dae8fc;strokeColor=#6c8ebf;" vertex="1" parent="1">
          <mxGeometry x="-2601.25" y="3228" width="120" height="60" as="geometry" />
        </mxCell>
        <mxCell id="egrEntnQuPlnR7x_gv7B-153" value="" style="endArrow=none;html=1;rounded=0;exitX=1;exitY=0.5;exitDx=0;exitDy=0;entryX=0.5;entryY=0;entryDx=0;entryDy=0;" edge="1" parent="1" source="egrEntnQuPlnR7x_gv7B-5" target="egrEntnQuPlnR7x_gv7B-21">
          <mxGeometry relative="1" as="geometry">
            <mxPoint x="-2780" y="2460" as="sourcePoint" />
            <mxPoint x="-2620" y="2460" as="targetPoint" />
          </mxGeometry>
        </mxCell>
        <mxCell id="egrEntnQuPlnR7x_gv7B-154" value="" style="endArrow=none;html=1;rounded=0;exitX=1;exitY=0.5;exitDx=0;exitDy=0;entryX=0;entryY=0;entryDx=0;entryDy=0;" edge="1" parent="1" source="egrEntnQuPlnR7x_gv7B-4" target="egrEntnQuPlnR7x_gv7B-21">
          <mxGeometry relative="1" as="geometry">
            <mxPoint x="-2700" y="2431" as="sourcePoint" />
            <mxPoint x="-2620" y="2504" as="targetPoint" />
          </mxGeometry>
        </mxCell>
        <mxCell id="egrEntnQuPlnR7x_gv7B-155" value="" style="endArrow=none;html=1;rounded=0;exitX=1;exitY=0.5;exitDx=0;exitDy=0;entryX=-0.014;entryY=0.59;entryDx=0;entryDy=0;entryPerimeter=0;" edge="1" parent="1" source="egrEntnQuPlnR7x_gv7B-7" target="egrEntnQuPlnR7x_gv7B-21">
          <mxGeometry relative="1" as="geometry">
            <mxPoint x="-2760.38" y="2598" as="sourcePoint" />
            <mxPoint x="-2730.38" y="2621" as="targetPoint" />
          </mxGeometry>
        </mxCell>
        <mxCell id="egrEntnQuPlnR7x_gv7B-156" value="" style="endArrow=none;html=1;rounded=0;exitX=1;exitY=0.5;exitDx=0;exitDy=0;entryX=0;entryY=1;entryDx=0;entryDy=0;" edge="1" parent="1" source="egrEntnQuPlnR7x_gv7B-3" target="egrEntnQuPlnR7x_gv7B-21">
          <mxGeometry relative="1" as="geometry">
            <mxPoint x="-2770" y="2591" as="sourcePoint" />
            <mxPoint x="-2740" y="2614" as="targetPoint" />
          </mxGeometry>
        </mxCell>
        <mxCell id="egrEntnQuPlnR7x_gv7B-157" value="" style="endArrow=none;html=1;rounded=0;exitX=1;exitY=0.5;exitDx=0;exitDy=0;entryX=0.25;entryY=1;entryDx=0;entryDy=0;" edge="1" parent="1" source="aDhdWH1WQT66VKp4V4vk-36" target="egrEntnQuPlnR7x_gv7B-21">
          <mxGeometry relative="1" as="geometry">
            <mxPoint x="-2760.38" y="2631" as="sourcePoint" />
            <mxPoint x="-2730.38" y="2598" as="targetPoint" />
          </mxGeometry>
        </mxCell>
        <mxCell id="egrEntnQuPlnR7x_gv7B-158" value="" style="endArrow=none;html=1;rounded=0;exitX=1;exitY=0.5;exitDx=0;exitDy=0;entryX=-0.01;entryY=0.408;entryDx=0;entryDy=0;entryPerimeter=0;" edge="1" parent="1" source="egrEntnQuPlnR7x_gv7B-15" target="egrEntnQuPlnR7x_gv7B-13">
          <mxGeometry relative="1" as="geometry">
            <mxPoint x="-2559" y="2618" as="sourcePoint" />
            <mxPoint x="-2530" y="2619" as="targetPoint" />
          </mxGeometry>
        </mxCell>
        <mxCell id="egrEntnQuPlnR7x_gv7B-159" value="" style="endArrow=none;html=1;rounded=0;exitX=1;exitY=0;exitDx=0;exitDy=0;entryX=0;entryY=1;entryDx=0;entryDy=0;" edge="1" parent="1" source="egrEntnQuPlnR7x_gv7B-14" target="egrEntnQuPlnR7x_gv7B-13">
          <mxGeometry relative="1" as="geometry">
            <mxPoint x="-2568.38" y="2595" as="sourcePoint" />
            <mxPoint x="-2538.38" y="2618" as="targetPoint" />
          </mxGeometry>
        </mxCell>
        <mxCell id="egrEntnQuPlnR7x_gv7B-160" value="" style="endArrow=none;html=1;rounded=0;exitX=0.5;exitY=0;exitDx=0;exitDy=0;" edge="1" parent="1" source="egrEntnQuPlnR7x_gv7B-16">
          <mxGeometry relative="1" as="geometry">
            <mxPoint x="-2555" y="2594" as="sourcePoint" />
            <mxPoint x="-2470" y="2681" as="targetPoint" />
          </mxGeometry>
        </mxCell>
        <mxCell id="egrEntnQuPlnR7x_gv7B-161" value="" style="endArrow=none;html=1;rounded=0;exitX=0;exitY=0;exitDx=0;exitDy=0;entryX=1;entryY=1;entryDx=0;entryDy=0;" edge="1" parent="1" source="egrEntnQuPlnR7x_gv7B-17" target="egrEntnQuPlnR7x_gv7B-13">
          <mxGeometry relative="1" as="geometry">
            <mxPoint x="-2535" y="2707" as="sourcePoint" />
            <mxPoint x="-2510" y="2691" as="targetPoint" />
          </mxGeometry>
        </mxCell>
        <mxCell id="egrEntnQuPlnR7x_gv7B-162" value="" style="endArrow=none;html=1;rounded=0;exitX=0;exitY=0.5;exitDx=0;exitDy=0;entryX=1.003;entryY=0.454;entryDx=0;entryDy=0;entryPerimeter=0;" edge="1" parent="1" source="egrEntnQuPlnR7x_gv7B-18" target="egrEntnQuPlnR7x_gv7B-13">
          <mxGeometry relative="1" as="geometry">
            <mxPoint x="-2366" y="2606" as="sourcePoint" />
            <mxPoint x="-2401" y="2590" as="targetPoint" />
          </mxGeometry>
        </mxCell>
        <mxCell id="egrEntnQuPlnR7x_gv7B-163" value="" style="endArrow=none;html=1;rounded=0;exitX=0.5;exitY=1;exitDx=0;exitDy=0;entryX=0.5;entryY=0;entryDx=0;entryDy=0;" edge="1" parent="1" source="egrEntnQuPlnR7x_gv7B-29" target="egrEntnQuPlnR7x_gv7B-26">
          <mxGeometry relative="1" as="geometry">
            <mxPoint x="-2280" y="2696" as="sourcePoint" />
            <mxPoint x="-2315" y="2680" as="targetPoint" />
          </mxGeometry>
        </mxCell>
        <mxCell id="egrEntnQuPlnR7x_gv7B-164" value="" style="endArrow=none;html=1;rounded=0;entryX=0;entryY=0;entryDx=0;entryDy=0;exitX=1;exitY=0.5;exitDx=0;exitDy=0;" edge="1" parent="1" source="egrEntnQuPlnR7x_gv7B-28" target="egrEntnQuPlnR7x_gv7B-26">
          <mxGeometry relative="1" as="geometry">
            <mxPoint x="-2350" y="2650" as="sourcePoint" />
            <mxPoint x="-2400" y="2756" as="targetPoint" />
          </mxGeometry>
        </mxCell>
        <mxCell id="egrEntnQuPlnR7x_gv7B-168" value="" style="endArrow=none;html=1;rounded=0;exitX=1;exitY=0;exitDx=0;exitDy=0;entryX=0;entryY=1;entryDx=0;entryDy=0;" edge="1" parent="1" source="egrEntnQuPlnR7x_gv7B-26" target="egrEntnQuPlnR7x_gv7B-32">
          <mxGeometry relative="1" as="geometry">
            <mxPoint x="-2155" y="2740" as="sourcePoint" />
            <mxPoint x="-2190" y="2724" as="targetPoint" />
          </mxGeometry>
        </mxCell>
        <mxCell id="egrEntnQuPlnR7x_gv7B-169" value="" style="endArrow=none;html=1;rounded=0;exitX=1.005;exitY=0.336;exitDx=0;exitDy=0;entryX=0;entryY=0.5;entryDx=0;entryDy=0;exitPerimeter=0;" edge="1" parent="1" source="egrEntnQuPlnR7x_gv7B-26" target="egrEntnQuPlnR7x_gv7B-30">
          <mxGeometry relative="1" as="geometry">
            <mxPoint x="-2247.5" y="2824" as="sourcePoint" />
            <mxPoint x="-2222.5" y="2808" as="targetPoint" />
          </mxGeometry>
        </mxCell>
        <mxCell id="egrEntnQuPlnR7x_gv7B-170" value="" style="endArrow=none;html=1;rounded=0;exitX=1;exitY=0.79;exitDx=0;exitDy=0;entryX=0;entryY=0;entryDx=0;entryDy=0;exitPerimeter=0;" edge="1" parent="1" source="egrEntnQuPlnR7x_gv7B-26" target="egrEntnQuPlnR7x_gv7B-33">
          <mxGeometry relative="1" as="geometry">
            <mxPoint x="-2259" y="2819" as="sourcePoint" />
            <mxPoint x="-2200" y="2820" as="targetPoint" />
          </mxGeometry>
        </mxCell>
        <mxCell id="egrEntnQuPlnR7x_gv7B-171" value="" style="endArrow=none;html=1;rounded=0;exitX=0.5;exitY=1;exitDx=0;exitDy=0;entryX=0.5;entryY=0;entryDx=0;entryDy=0;" edge="1" parent="1" source="egrEntnQuPlnR7x_gv7B-26" target="egrEntnQuPlnR7x_gv7B-31">
          <mxGeometry relative="1" as="geometry">
            <mxPoint x="-2270" y="2881" as="sourcePoint" />
            <mxPoint x="-2245" y="2895" as="targetPoint" />
          </mxGeometry>
        </mxCell>
        <mxCell id="egrEntnQuPlnR7x_gv7B-172" value="" style="endArrow=none;html=1;rounded=0;exitX=0;exitY=1;exitDx=0;exitDy=0;entryX=0.967;entryY=0.306;entryDx=0;entryDy=0;entryPerimeter=0;" edge="1" parent="1" source="egrEntnQuPlnR7x_gv7B-26" target="egrEntnQuPlnR7x_gv7B-27">
          <mxGeometry relative="1" as="geometry">
            <mxPoint x="-2406" y="2881" as="sourcePoint" />
            <mxPoint x="-2381" y="2895" as="targetPoint" />
          </mxGeometry>
        </mxCell>
        <mxCell id="egrEntnQuPlnR7x_gv7B-174" value="" style="endArrow=none;html=1;rounded=0;exitX=0.25;exitY=0;exitDx=0;exitDy=0;entryX=0.5;entryY=1;entryDx=0;entryDy=0;" edge="1" parent="1" source="egrEntnQuPlnR7x_gv7B-57" target="egrEntnQuPlnR7x_gv7B-39">
          <mxGeometry relative="1" as="geometry">
            <mxPoint x="-2550" y="3040" as="sourcePoint" />
            <mxPoint x="-2491" y="3041" as="targetPoint" />
          </mxGeometry>
        </mxCell>
        <mxCell id="egrEntnQuPlnR7x_gv7B-175" value="" style="endArrow=none;html=1;rounded=0;exitX=1;exitY=0;exitDx=0;exitDy=0;entryX=0.422;entryY=0.997;entryDx=0;entryDy=0;entryPerimeter=0;" edge="1" parent="1" source="egrEntnQuPlnR7x_gv7B-57" target="egrEntnQuPlnR7x_gv7B-43">
          <mxGeometry relative="1" as="geometry">
            <mxPoint x="-2470.5" y="2914.5" as="sourcePoint" />
            <mxPoint x="-2411.5" y="2915.5" as="targetPoint" />
          </mxGeometry>
        </mxCell>
        <mxCell id="egrEntnQuPlnR7x_gv7B-176" value="" style="endArrow=none;html=1;rounded=0;exitX=1.003;exitY=0.367;exitDx=0;exitDy=0;entryX=0;entryY=0.5;entryDx=0;entryDy=0;exitPerimeter=0;" edge="1" parent="1" source="egrEntnQuPlnR7x_gv7B-57" target="egrEntnQuPlnR7x_gv7B-37">
          <mxGeometry relative="1" as="geometry">
            <mxPoint x="-2420" y="2990" as="sourcePoint" />
            <mxPoint x="-2361" y="2991" as="targetPoint" />
          </mxGeometry>
        </mxCell>
        <mxCell id="egrEntnQuPlnR7x_gv7B-177" value="" style="endArrow=none;html=1;rounded=0;exitX=1;exitY=1;exitDx=0;exitDy=0;entryX=0.007;entryY=0.454;entryDx=0;entryDy=0;entryPerimeter=0;" edge="1" parent="1" source="egrEntnQuPlnR7x_gv7B-57" target="egrEntnQuPlnR7x_gv7B-36">
          <mxGeometry relative="1" as="geometry">
            <mxPoint x="-2540" y="2965" as="sourcePoint" />
            <mxPoint x="-2490" y="2960" as="targetPoint" />
          </mxGeometry>
        </mxCell>
        <mxCell id="egrEntnQuPlnR7x_gv7B-178" value="" style="endArrow=none;html=1;rounded=0;exitX=1;exitY=0.5;exitDx=0;exitDy=0;entryX=0;entryY=0.5;entryDx=0;entryDy=0;" edge="1" parent="1" source="egrEntnQuPlnR7x_gv7B-68" target="egrEntnQuPlnR7x_gv7B-62">
          <mxGeometry relative="1" as="geometry">
            <mxPoint x="-2714" y="3240" as="sourcePoint" />
            <mxPoint x="-2655" y="3241" as="targetPoint" />
          </mxGeometry>
        </mxCell>
        <mxCell id="egrEntnQuPlnR7x_gv7B-179" value="" style="endArrow=none;html=1;rounded=0;exitX=0.5;exitY=1;exitDx=0;exitDy=0;entryX=0.481;entryY=-0.007;entryDx=0;entryDy=0;entryPerimeter=0;" edge="1" parent="1" source="egrEntnQuPlnR7x_gv7B-12" target="egrEntnQuPlnR7x_gv7B-9">
          <mxGeometry relative="1" as="geometry">
            <mxPoint x="-2863" y="2993.58" as="sourcePoint" />
            <mxPoint x="-2838" y="2993.58" as="targetPoint" />
          </mxGeometry>
        </mxCell>
        <mxCell id="egrEntnQuPlnR7x_gv7B-180" value="" style="endArrow=none;html=1;rounded=0;exitX=0;exitY=1;exitDx=0;exitDy=0;entryX=0.75;entryY=0;entryDx=0;entryDy=0;" edge="1" parent="1" source="egrEntnQuPlnR7x_gv7B-11" target="egrEntnQuPlnR7x_gv7B-9">
          <mxGeometry relative="1" as="geometry">
            <mxPoint x="-2748" y="3062.75" as="sourcePoint" />
            <mxPoint x="-2748" y="3080.75" as="targetPoint" />
          </mxGeometry>
        </mxCell>
        <mxCell id="egrEntnQuPlnR7x_gv7B-181" value="" style="endArrow=none;html=1;rounded=0;exitX=0.602;exitY=0.983;exitDx=0;exitDy=0;entryX=0.25;entryY=0;entryDx=0;entryDy=0;exitPerimeter=0;" edge="1" parent="1" source="egrEntnQuPlnR7x_gv7B-10" target="egrEntnQuPlnR7x_gv7B-9">
          <mxGeometry relative="1" as="geometry">
            <mxPoint x="-2892.88" y="3062.75" as="sourcePoint" />
            <mxPoint x="-2944.88" y="3087.75" as="targetPoint" />
          </mxGeometry>
        </mxCell>
        <mxCell id="egrEntnQuPlnR7x_gv7B-183" value="" style="endArrow=none;html=1;rounded=0;exitX=0;exitY=0.43;exitDx=0;exitDy=0;entryX=1;entryY=0.5;entryDx=0;entryDy=0;exitPerimeter=0;" edge="1" parent="1" source="egrEntnQuPlnR7x_gv7B-123" target="egrEntnQuPlnR7x_gv7B-131">
          <mxGeometry relative="1" as="geometry">
            <mxPoint x="-2918" y="3313.75" as="sourcePoint" />
            <mxPoint x="-2917.9999999999995" y="3276.25" as="targetPoint" />
          </mxGeometry>
        </mxCell>
        <mxCell id="egrEntnQuPlnR7x_gv7B-184" value="" style="endArrow=none;html=1;rounded=0;exitX=0.5;exitY=1;exitDx=0;exitDy=0;entryX=0.5;entryY=0;entryDx=0;entryDy=0;" edge="1" parent="1" source="egrEntnQuPlnR7x_gv7B-123" target="egrEntnQuPlnR7x_gv7B-130">
          <mxGeometry relative="1" as="geometry">
            <mxPoint x="-2898.38" y="3313.75" as="sourcePoint" />
            <mxPoint x="-2933.38" y="3316.75" as="targetPoint" />
          </mxGeometry>
        </mxCell>
        <mxCell id="egrEntnQuPlnR7x_gv7B-185" value="" style="endArrow=none;html=1;rounded=0;exitX=1;exitY=0;exitDx=0;exitDy=0;entryX=0;entryY=0.5;entryDx=0;entryDy=0;" edge="1" parent="1" source="egrEntnQuPlnR7x_gv7B-77" target="egrEntnQuPlnR7x_gv7B-84">
          <mxGeometry relative="1" as="geometry">
            <mxPoint x="-2200" y="3095" as="sourcePoint" />
            <mxPoint x="-2150" y="3090" as="targetPoint" />
          </mxGeometry>
        </mxCell>
        <mxCell id="egrEntnQuPlnR7x_gv7B-186" value="" style="endArrow=none;html=1;rounded=0;exitX=0.997;exitY=0.375;exitDx=0;exitDy=0;entryX=0;entryY=0.5;entryDx=0;entryDy=0;exitPerimeter=0;" edge="1" parent="1" source="egrEntnQuPlnR7x_gv7B-77" target="egrEntnQuPlnR7x_gv7B-89">
          <mxGeometry relative="1" as="geometry">
            <mxPoint x="-2310" y="3219.5" as="sourcePoint" />
            <mxPoint x="-2298" y="3199.5" as="targetPoint" />
          </mxGeometry>
        </mxCell>
        <mxCell id="egrEntnQuPlnR7x_gv7B-187" value="" style="endArrow=none;html=1;rounded=0;exitX=0;exitY=0.5;exitDx=0;exitDy=0;entryX=1;entryY=1;entryDx=0;entryDy=0;" edge="1" parent="1" source="egrEntnQuPlnR7x_gv7B-112" target="egrEntnQuPlnR7x_gv7B-77">
          <mxGeometry relative="1" as="geometry">
            <mxPoint x="-2304.5" y="3305.5" as="sourcePoint" />
            <mxPoint x="-2292.5" y="3285.5" as="targetPoint" />
          </mxGeometry>
        </mxCell>
        <mxCell id="egrEntnQuPlnR7x_gv7B-188" value="" style="endArrow=none;html=1;rounded=0;exitX=0.75;exitY=0;exitDx=0;exitDy=0;entryX=0;entryY=0.5;entryDx=0;entryDy=0;" edge="1" parent="1" source="egrEntnQuPlnR7x_gv7B-90" target="egrEntnQuPlnR7x_gv7B-91">
          <mxGeometry relative="1" as="geometry">
            <mxPoint x="-2060" y="3131" as="sourcePoint" />
            <mxPoint x="-2048" y="3111" as="targetPoint" />
          </mxGeometry>
        </mxCell>
        <mxCell id="egrEntnQuPlnR7x_gv7B-189" value="" style="endArrow=none;html=1;rounded=0;exitX=0.9;exitY=-0.015;exitDx=0;exitDy=0;entryX=0;entryY=0.5;entryDx=0;entryDy=0;exitPerimeter=0;" edge="1" parent="1" source="egrEntnQuPlnR7x_gv7B-90" target="egrEntnQuPlnR7x_gv7B-95">
          <mxGeometry relative="1" as="geometry">
            <mxPoint x="-2070" y="3221" as="sourcePoint" />
            <mxPoint x="-2021" y="3120" as="targetPoint" />
          </mxGeometry>
        </mxCell>
        <mxCell id="egrEntnQuPlnR7x_gv7B-190" value="" style="endArrow=none;html=1;rounded=0;exitX=1.007;exitY=0.48;exitDx=0;exitDy=0;entryX=0;entryY=0.5;entryDx=0;entryDy=0;exitPerimeter=0;" edge="1" parent="1" source="egrEntnQuPlnR7x_gv7B-90" target="egrEntnQuPlnR7x_gv7B-94">
          <mxGeometry relative="1" as="geometry">
            <mxPoint x="-2090" y="3292" as="sourcePoint" />
            <mxPoint x="-2066" y="3230" as="targetPoint" />
          </mxGeometry>
        </mxCell>
        <mxCell id="egrEntnQuPlnR7x_gv7B-191" value="" style="endArrow=none;html=1;rounded=0;exitX=1;exitY=0.25;exitDx=0;exitDy=0;entryX=0;entryY=0.5;entryDx=0;entryDy=0;" edge="1" parent="1" source="egrEntnQuPlnR7x_gv7B-90" target="egrEntnQuPlnR7x_gv7B-97">
          <mxGeometry relative="1" as="geometry">
            <mxPoint x="-2064" y="3281" as="sourcePoint" />
            <mxPoint x="-2040" y="3219" as="targetPoint" />
          </mxGeometry>
        </mxCell>
        <mxCell id="egrEntnQuPlnR7x_gv7B-192" value="" style="endArrow=none;html=1;rounded=0;exitX=1;exitY=0.75;exitDx=0;exitDy=0;entryX=0.004;entryY=0.467;entryDx=0;entryDy=0;entryPerimeter=0;" edge="1" parent="1" source="egrEntnQuPlnR7x_gv7B-90" target="egrEntnQuPlnR7x_gv7B-98">
          <mxGeometry relative="1" as="geometry">
            <mxPoint x="-2064" y="3273.5" as="sourcePoint" />
            <mxPoint x="-2040" y="3242.5" as="targetPoint" />
          </mxGeometry>
        </mxCell>
        <mxCell id="egrEntnQuPlnR7x_gv7B-193" value="" style="endArrow=none;html=1;rounded=0;exitX=0.887;exitY=1.008;exitDx=0;exitDy=0;entryX=0;entryY=0.5;entryDx=0;entryDy=0;exitPerimeter=0;" edge="1" parent="1" source="egrEntnQuPlnR7x_gv7B-90" target="egrEntnQuPlnR7x_gv7B-92">
          <mxGeometry relative="1" as="geometry">
            <mxPoint x="-2060" y="3240.5" as="sourcePoint" />
            <mxPoint x="-2035" y="3265.5" as="targetPoint" />
          </mxGeometry>
        </mxCell>
        <mxCell id="egrEntnQuPlnR7x_gv7B-194" value="" style="endArrow=none;html=1;rounded=0;exitX=0.75;exitY=1;exitDx=0;exitDy=0;entryX=0;entryY=0.5;entryDx=0;entryDy=0;" edge="1" parent="1" source="egrEntnQuPlnR7x_gv7B-90" target="egrEntnQuPlnR7x_gv7B-110">
          <mxGeometry relative="1" as="geometry">
            <mxPoint x="-2090" y="3251.5" as="sourcePoint" />
            <mxPoint x="-2055" y="3305.5" as="targetPoint" />
          </mxGeometry>
        </mxCell>
      </root>
    </mxGraphModel>
  </diagram>
</mxfile>
